<?xml version="1.0" encoding="utf-8"?>
<!-- Generator: Adobe Illustrator 22.0.1, SVG Export Plug-In . SVG Version: 6.00 Build 0)  -->
<svg version="1.1" id="Layer_1" xmlns="http://www.w3.org/2000/svg" xmlns:xlink="http://www.w3.org/1999/xlink" x="0px" y="0px"
	 viewBox="0 0 2500 610.5" style="enable-background:new 0 0 2500 610.5;" xml:space="preserve">
<style type="text/css">
	.st0{fill:#E4209C;}
</style>
<path class="st0" d="M942.6,309.1c0-76.7-21.9-116-65.6-118.2c-17.4-0.8-34.4,1.9-50.9,8.4c-13.2,4.7-22.1,9.4-26.7,14.1v183
	c28,17.6,52.8,25.7,74.5,24.4C919.7,417.8,942.6,380.6,942.6,309.1z M996.6,312.3c0,39-9.1,71.3-27.5,97
	c-20.5,29.1-48.9,44.1-85.1,44.9c-27.4,0.9-55.5-7.7-84.5-25.7v166.3l-46.9-16.7V208.9c7.7-9.4,17.6-17.5,29.6-24.4
	c27.9-16.3,61.8-24.6,101.8-25l0.7,0.7c36.5-0.5,64.6,14.5,84.4,44.9C987.3,232.9,996.6,268.6,996.6,312.3L996.6,312.3z
	 M1283.2,421.5c0,52.2-5.2,88.4-15.7,108.5c-10.5,20.1-30.5,36.2-60.1,48.1c-24,9.4-49.9,14.6-77.7,15.4L1122,564
	c28.3-3.8,48.2-7.7,59.7-11.5c22.7-7.7,38.3-19.5,46.9-35.3c6.9-12.9,10.3-37.5,10.3-73.8v-12.2c-32.1,14.6-65.7,21.8-100.8,21.8
	c-23.1,0-43.5-7.2-61-21.8c-19.7-15.9-29.6-36-29.6-60.4V175.5l46.9-16.1V356c0,21,6.8,37.2,20.3,48.5s31.1,16.8,52.6,16.4
	c21.5-0.5,44.5-8.8,69-25V166.5h46.9L1283.2,421.5L1283.2,421.5z M1466.4,451.6c-5.1,0.4-10.3,0.7-15.4,0.7c-26.5,0-47.2-6.3-62-19
	c-14.7-12.7-22.1-30.2-22.1-52.5V196h-32.1v-29.5h32.1V88.2l46.9-16.7v95.1h52.7V196h-52.7v183.5c0,17.6,4.7,30.1,14.2,37.4
	c8.1,6,21,9.4,38.5,10.3L1466.4,451.6L1466.4,451.6z M1750.4,447.8h-46.9V266.7c0-18.4-4.3-34.3-12.9-47.5
	c-9.9-15-23.7-22.5-41.3-22.5c-21.5,0-48.4,11.3-80.7,34v217h-46.9V15l46.9-14.8v197.1c30-21.8,62.7-32.7,98.3-32.7
	c24.8,0,45,8.4,60.4,25c15.4,16.7,23.1,37.5,23.1,62.3V447.8L1750.4,447.8L1750.4,447.8z M1999.7,301.7c0-29.5-5.6-53.8-16.7-73
	c-13.2-23.5-33.8-35.8-61.6-37.1c-51.4,3-77.1,39.8-77.1,110.4c0,32.4,5.3,59.4,16.1,81.1c13.8,27.7,34.4,41.3,61.9,40.9
	C1973.9,423.6,1999.7,382.9,1999.7,301.7L1999.7,301.7z M2051.1,302c0,41.9-10.7,76.8-32.1,104.7c-23.6,31.2-56.1,46.9-97.6,46.9
	c-41.2,0-73.2-15.7-96.4-46.9c-21-27.9-31.5-62.8-31.5-104.7c0-39.4,11.3-72.6,34-99.6c24-28.6,55.5-43,94.4-43s70.7,14.4,95.1,43
	C2039.7,229.5,2051.1,262.6,2051.1,302L2051.1,302z M2320,447.8h-46.9V256.5c0-21-6.3-37.4-18.9-49.2c-12.6-11.8-29.5-17.4-50.5-17
	c-22.3,0.4-43.5,7.7-63.6,21.8v235.7h-46.9V206.3c27-19.7,51.8-32.5,74.5-38.5c21.4-5.6,40.3-8.4,56.6-8.4c11.1,0,21.6,1.1,31.5,3.2
	c18.4,4.3,33.4,12.2,45,23.8c12.9,12.8,19.3,28.2,19.3,46.2L2320,447.8L2320,447.8z"/>
<path class="st0" d="M289.2,16.7c-24.1,0.1-47.2,2.2-67.5,5.8C162,33,151.1,55.1,151.1,95.9v53.8h141.2v17.9H98.1
	c-41,0-77,24.7-88.2,71.6c-13,53.8-13.5,87.3,0,143.5c10,41.8,34,71.6,75,71.6h48.5v-64.5c0-46.6,40.3-87.7,88.2-87.7h141
	c39.3,0,70.6-32.3,70.6-71.7V95.9c0-38.3-32.3-67-70.6-73.4C338.5,18.4,313.3,16.6,289.2,16.7L289.2,16.7z M212.8,60
	c14.6,0,26.5,12.1,26.5,27c0,14.8-11.9,26.8-26.5,26.8s-26.5-12-26.5-26.8C186.3,72.1,198.2,60,212.8,60L212.8,60z"/>
<path class="st0" d="M450.9,167.6v62.7c0,48.6-41.2,89.5-88.2,89.5h-141c-38.6,0-70.6,33.1-70.6,71.7V526
	c0,38.3,33.3,60.8,70.6,71.7c44.7,13.1,87.5,15.5,141,0c35.5-10.3,70.6-31,70.6-71.7v-53.8h-141v-17.9h211.6
	c41,0,56.3-28.6,70.6-71.6c14.7-44.2,14.1-86.8,0-143.5c-10.1-40.8-29.5-71.6-70.6-71.6H450.9z M371.6,508c14.6,0,26.5,12,26.5,26.8
	c0,14.9-11.9,27-26.5,27s-26.5-12.1-26.5-27C345.1,520,357,508,371.6,508z"/>
<path class="st0" d="M2411.3,124.7h8.2V73.1h19.5V67h-47.2v6.1h19.5V124.7 M2446.3,124.7h7V77.6l15.2,47.1h7.8l15.9-46.9v47h7.7V67
	h-10.1l-17.4,49.5L2457.7,67h-11.3L2446.3,124.7"/>
</svg>
