<?xml version="1.0" encoding="utf-8"?>
<!-- Generator: Adobe Illustrator 22.0.1, SVG Export Plug-In . SVG Version: 6.00 Build 0)  -->
<svg version="1.1"
	 id="Layer_1" inkscape:version="0.92.3 (2405546, 2018-03-11)" sodipodi:docname="scikit learn logo small.svg" xmlns:cc="http://creativecommons.org/ns#" xmlns:dc="http://purl.org/dc/elements/1.1/" xmlns:inkscape="http://www.inkscape.org/namespaces/inkscape" xmlns:rdf="http://www.w3.org/1999/02/22-rdf-syntax-ns#" xmlns:sodipodi="http://sodipodi.sourceforge.net/DTD/sodipodi-0.dtd" xmlns:svg="http://www.w3.org/2000/svg"
	 xmlns="http://www.w3.org/2000/svg" xmlns:xlink="http://www.w3.org/1999/xlink" x="0px" y="0px" viewBox="0 0 208 112.2"
	 style="enable-background:new 0 0 208 112.2;" xml:space="preserve">
<style type="text/css">
	.st0{fill:#E4209C;}
	.st1{font-family:'Helvetica';}
	.st2{font-size:17.3096px;}
</style>
<path id="path5" inkscape:connector-curvature="0" class="st0" d="M159.5,95.3c25.4-25.4,29.6-62.4,9.4-82.6
	c-20.2-20.2-57.1-16-82.5,9.4C61,47.6,68.4,96.1,77,104.7C84,111.7,134.1,120.7,159.5,95.3L159.5,95.3z"/>
<path id="path7" inkscape:connector-curvature="0" class="st0" d="M55.3,58.6C40.6,43.9,19.1,41.4,7.4,53.1
	C-4.3,64.9-1.9,86.3,12.9,101c14.7,14.7,42.9,10.5,47.9,5.5C64.8,102.5,70,73.4,55.3,58.6z"/>
<g id="g9" transform="translate(-120.60861,-220.26017)">
	<g id="g11">
		<path id="path13" inkscape:connector-curvature="0" class="st0" d="M226.8,309.4c-2.6,2.4-4.9,4.2-6.8,5.3c-2,1.1-3.8,1.7-5.6,1.7
			c-2,0-3.7-0.8-5-2.4c-1.3-1.6-1.9-3.7-1.9-6.4c0-4,0.9-8.8,2.6-14.5c1.7-5.6,3.9-10.8,6.3-15.6l7.3-2.7c0.2-0.1,0.4-0.1,0.5-0.1
			c0.6,0,1,0.4,1.4,1.2c0.4,0.8,0.5,1.9,0.5,3.3c0,3.9-0.9,7.7-2.7,11.3c-1.8,3.7-4.6,7.6-8.4,11.7c-0.2,2-0.2,3.4-0.2,4.1
			c0,1.7,0.3,3,0.9,4c0.6,1,1.4,1.5,2.4,1.5c1,0,2.1-0.4,3.3-1.1c1.2-0.7,2.9-2.3,5.3-4.7L226.8,309.4L226.8,309.4z M215.8,298.1
			c2.4-2.7,4.4-5.7,5.9-9.1c1.5-3.4,2.3-6.2,2.3-8.7c0-0.7-0.1-1.3-0.3-1.7c-0.2-0.4-0.5-0.6-0.8-0.6c-0.7,0-1.7,1.8-3.1,5.3
			C218.4,286.8,217.1,291.8,215.8,298.1L215.8,298.1z"/>
		<path id="path15" inkscape:connector-curvature="0" class="st0" d="M248.2,309.4c-2.4,2.4-4.6,4.2-6.5,5.3
			c-1.9,1.1-4.1,1.7-6.4,1.7c-2.6,0-4.7-0.8-6.3-2.5c-1.6-1.7-2.4-3.9-2.4-6.6c0-4.1,1.4-7.7,4.2-11c2.8-3.3,5.9-4.9,9.4-4.9
			c1.8,0,3.2,0.5,4.3,1.4c1.1,0.9,1.6,2.1,1.6,3.6c0,4-4.2,7.2-12.6,9.7c0.8,3.7,2.8,5.6,6,5.6c1.3,0,2.5-0.3,3.6-1
			c1.2-0.7,2.9-2.2,5.2-4.5L248.2,309.4L248.2,309.4z M233.2,304c4.9-1.4,7.4-3.9,7.4-7.6c0-1.8-0.7-2.8-2-2.8c-1.3,0-2.5,1-3.6,2.9
			C233.8,298.5,233.2,301,233.2,304L233.2,304z"/>
		<path id="path17" inkscape:connector-curvature="0" class="st0" d="M278.9,309.4c-3.1,2.9-5.3,4.8-6.6,5.7
			c-1.3,0.9-2.6,1.3-3.8,1.3c-3,0-4.5-2.7-4.3-8c-1.9,2.7-3.7,4.8-5.3,6.1c-1.6,1.3-3.3,2-5,2c-1.7,0-3.1-0.8-4.3-2.4
			c-1.2-1.6-1.8-3.5-1.8-5.8c0-2.9,0.8-5.6,2.4-8.2c1.6-2.6,3.6-4.7,6.1-6.3c2.5-1.6,4.7-2.4,6.5-2.4c2.4,0,4.1,1.1,5,3.3l5.9-3.2
			h1.6l-2.5,8.4c-1.3,4.2-2,7.1-2,8.7c0,1.6,0.6,2.5,1.8,2.5c0.7,0,1.6-0.4,2.5-1.2c0.9-0.8,2.2-2,3.8-3.6L278.9,309.4L278.9,309.4z
			 M257.9,310.9c1.9,0,3.7-1.6,5.4-4.9c1.7-3.3,2.5-6.3,2.5-9c0-1.1-0.2-1.9-0.7-2.5c-0.5-0.6-1.1-0.9-1.9-0.9
			c-1.9,0-3.7,1.6-5.4,4.9c-1.7,3.3-2.6,6.3-2.6,9c0,1,0.3,1.9,0.8,2.5C256.5,310.6,257.1,310.9,257.9,310.9L257.9,310.9z"/>
		<path id="path19" inkscape:connector-curvature="0" class="st0" d="M300.4,309.4c-4.8,4.7-8.5,7.1-11.1,7.1c-1.2,0-2.2-0.5-3-1.5
			c-0.8-1-1.2-2.2-1.2-3.7c0-2.7,1.4-6.3,4.3-10.9c-1.4,0.7-3,1.2-4.7,1.5c-1.2,2.3-3.2,4.8-5.9,7.4h-0.7v-2.6c1.5-1.6,2.8-3.2,4-5
			c-1.6-0.7-2.5-1.8-2.5-3.2c0-1.5,0.5-3.1,1.5-4.7c1-1.7,2.4-2.5,4.2-2.5c1.5,0,2.2,0.8,2.2,2.3c0,1.2-0.4,2.9-1.3,5.2
			c3.2-0.3,6-2.8,8.3-7.3l2.6-0.1l-2.7,7.4c-1.1,3.1-1.8,5.2-2.2,6.3c-0.3,1.1-0.5,2.1-0.5,3c0,0.8,0.2,1.4,0.6,1.9
			c0.4,0.5,0.9,0.7,1.5,0.7c0.7,0,1.4-0.2,2-0.7c0.6-0.5,2-1.8,4.3-3.9L300.4,309.4L300.4,309.4z"/>
		<path id="path21" inkscape:connector-curvature="0" class="st0" d="M328.6,309.4c-4.4,4.7-8.2,7-11.4,7c-1.3,0-2.3-0.5-3.1-1.4
			c-0.8-0.9-1.2-2.1-1.2-3.6c0-2,0.8-5.2,2.5-9.4c0.9-2.3,1.4-3.7,1.4-4.3c0-0.6-0.2-0.9-0.7-0.9c-0.3,0-0.6,0.1-1.1,0.4
			c-0.4,0.3-0.9,0.6-1.4,1.1c-0.5,0.4-1,1-1.6,1.6c-0.5,0.5-1.1,1.2-1.7,1.8l-1.6,1.9c-0.7,0.9-1.1,1.8-1.3,2.7
			c-0.3,1.6-0.5,3.1-0.6,4.5c-0.1,1-0.1,2.4-0.1,4.1l-6.3,1.5c-0.2-2.6-0.3-4.5-0.3-5.8c0-3.1,0.4-6,1.1-8.8
			c0.7-2.8,1.9-5.9,3.5-9.3l7-1.3c-1.5,4-2.4,7.1-2.9,9.4c3.1-3.5,5.6-5.9,7.5-7.3c1.8-1.4,3.5-2,4.9-2c1,0,1.8,0.4,2.4,1.1
			c0.7,0.7,1,1.7,1,2.8c0,1.8-0.8,4.9-2.5,9.1c-1.1,2.9-1.7,4.8-1.7,5.6c0,1.2,0.5,1.7,1.4,1.7c1.4,0,3.7-1.8,6.8-5.5V309.4z"/>
	</g>
</g>
<text id="text25" transform="matrix(1 0 0 1 115 61.459)" class="st0 st1 st2">scikit</text>
</svg>
